<mxfile host="www.draw.io" modified="2019-11-19T12:36:40.227Z" agent="Mozilla/5.0 (Macintosh; Intel Mac OS X 10_15_1) AppleWebKit/537.36 (KHTML, like Gecko) Chrome/78.0.3904.97 Safari/537.36" etag="l-GG3Ui5aWtgnL5fX1xi" version="12.2.6" type="github" pages="1">
  <diagram name="Page-1" id="13e1069c-82ec-6db2-03f1-153e76fe0fe0">
    <mxGraphModel dx="887" dy="502" grid="0" gridSize="10" guides="1" tooltips="1" connect="1" arrows="1" fold="1" page="1" pageScale="1" pageWidth="1100" pageHeight="850" background="#ffffff" math="0" shadow="0">
      <root>
        <mxCell id="0"/>
        <mxCell id="1" parent="0"/>
        <mxCell id="7baba1c4bc27f4b0-2" value="iouui" style="shape=umlLifeline;perimeter=lifelinePerimeter;whiteSpace=wrap;html=1;container=1;collapsible=0;recursiveResize=0;outlineConnect=0;rounded=1;shadow=0;comic=0;labelBackgroundColor=none;strokeWidth=1;fontFamily=Verdana;fontSize=12;align=center;fillColor=#dae8fc;strokeColor=#6c8ebf;" parent="1" vertex="1">
          <mxGeometry x="240" y="80" width="100" height="580" as="geometry"/>
        </mxCell>
        <mxCell id="7baba1c4bc27f4b0-10" value="" style="html=1;points=[];perimeter=orthogonalPerimeter;rounded=0;shadow=0;comic=0;labelBackgroundColor=none;strokeWidth=1;fontFamily=Verdana;fontSize=12;align=center;" parent="7baba1c4bc27f4b0-2" vertex="1">
          <mxGeometry x="45" y="100" width="10" height="80" as="geometry"/>
        </mxCell>
        <mxCell id="7baba1c4bc27f4b0-3" value="server" style="shape=umlLifeline;perimeter=lifelinePerimeter;whiteSpace=wrap;html=1;container=1;collapsible=0;recursiveResize=0;outlineConnect=0;rounded=1;shadow=0;comic=0;labelBackgroundColor=none;strokeWidth=1;fontFamily=Verdana;fontSize=12;align=center;fillColor=#dae8fc;strokeColor=#6c8ebf;" parent="1" vertex="1">
          <mxGeometry x="395" y="80" width="100" height="580" as="geometry"/>
        </mxCell>
        <mxCell id="7baba1c4bc27f4b0-13" value="" style="html=1;points=[];perimeter=orthogonalPerimeter;rounded=0;shadow=0;comic=0;labelBackgroundColor=none;strokeWidth=1;fontFamily=Verdana;fontSize=12;align=center;" parent="7baba1c4bc27f4b0-3" vertex="1">
          <mxGeometry x="50" y="110" width="10" height="60" as="geometry"/>
        </mxCell>
        <mxCell id="WK731mxo1TGwIOSxjJBo-21" value="" style="html=1;points=[];perimeter=orthogonalPerimeter;rounded=0;shadow=0;comic=0;labelBackgroundColor=none;strokeWidth=1;fontFamily=Verdana;fontSize=12;align=center;" parent="7baba1c4bc27f4b0-3" vertex="1">
          <mxGeometry x="50" y="393" width="10" height="50" as="geometry"/>
        </mxCell>
        <mxCell id="7baba1c4bc27f4b0-8" value="client" style="shape=umlLifeline;perimeter=lifelinePerimeter;whiteSpace=wrap;html=1;container=1;collapsible=0;recursiveResize=0;outlineConnect=0;rounded=1;shadow=0;comic=0;labelBackgroundColor=none;strokeWidth=1;fontFamily=Verdana;fontSize=12;align=center;fillColor=#dae8fc;strokeColor=#6c8ebf;" parent="1" vertex="1">
          <mxGeometry x="100" y="80" width="100" height="580" as="geometry"/>
        </mxCell>
        <mxCell id="7baba1c4bc27f4b0-25" value="" style="html=1;points=[];perimeter=orthogonalPerimeter;rounded=0;shadow=0;comic=0;labelBackgroundColor=none;strokeColor=#000000;strokeWidth=1;fillColor=#FFFFFF;fontFamily=Verdana;fontSize=12;fontColor=#000000;align=center;" parent="1" vertex="1">
          <mxGeometry x="1005" y="460" width="10" height="30" as="geometry"/>
        </mxCell>
        <mxCell id="7baba1c4bc27f4b0-11" value="债务人展期确认页：&lt;br&gt;entendPreConfirm" style="html=1;verticalAlign=bottom;endArrow=block;entryX=0;entryY=0;labelBackgroundColor=none;fontFamily=Verdana;fontSize=12;edgeStyle=elbowEdgeStyle;elbow=vertical;" parent="1" target="7baba1c4bc27f4b0-10" edge="1">
          <mxGeometry relative="1" as="geometry">
            <mxPoint x="155" y="180" as="sourcePoint"/>
          </mxGeometry>
        </mxCell>
        <mxCell id="7baba1c4bc27f4b0-14" value="获取展期数据:&lt;br&gt;ExtendService&lt;br&gt;中getDetail方法" style="html=1;verticalAlign=bottom;endArrow=block;entryX=0;entryY=0;labelBackgroundColor=none;fontFamily=Verdana;fontSize=12;edgeStyle=elbowEdgeStyle;elbow=vertical;" parent="1" edge="1">
          <mxGeometry relative="1" as="geometry">
            <mxPoint x="296" y="192" as="sourcePoint"/>
            <mxPoint x="441" y="192" as="targetPoint"/>
          </mxGeometry>
        </mxCell>
        <mxCell id="WK731mxo1TGwIOSxjJBo-1" value="显示展期信息" style="html=1;verticalAlign=bottom;endArrow=open;dashed=1;endSize=8;labelBackgroundColor=none;fontFamily=Verdana;fontSize=12;edgeStyle=elbowEdgeStyle;elbow=vertical;" parent="1" edge="1">
          <mxGeometry relative="1" as="geometry">
            <mxPoint x="150" y="260" as="targetPoint"/>
            <Array as="points">
              <mxPoint x="225" y="260"/>
              <mxPoint x="255" y="260"/>
            </Array>
            <mxPoint x="280" y="260" as="sourcePoint"/>
          </mxGeometry>
        </mxCell>
        <mxCell id="WK731mxo1TGwIOSxjJBo-3" value="返回展期数据" style="html=1;verticalAlign=bottom;endArrow=open;dashed=1;endSize=8;labelBackgroundColor=none;fontFamily=Verdana;fontSize=12;edgeStyle=elbowEdgeStyle;elbow=vertical;" parent="1" edge="1">
          <mxGeometry relative="1" as="geometry">
            <mxPoint x="300" y="249.5" as="targetPoint"/>
            <Array as="points">
              <mxPoint x="375" y="249.5"/>
              <mxPoint x="405" y="249.5"/>
            </Array>
            <mxPoint x="440" y="250" as="sourcePoint"/>
          </mxGeometry>
        </mxCell>
        <mxCell id="7baba1c4bc27f4b0-4" value="extendsion" style="shape=umlLifeline;perimeter=lifelinePerimeter;whiteSpace=wrap;html=1;container=1;collapsible=0;recursiveResize=0;outlineConnect=0;rounded=1;shadow=0;comic=0;labelBackgroundColor=none;strokeWidth=1;fontFamily=Verdana;fontSize=12;align=center;fillColor=#dae8fc;strokeColor=#6c8ebf;" parent="1" vertex="1">
          <mxGeometry x="679.5" y="80" width="100" height="580" as="geometry"/>
        </mxCell>
        <mxCell id="WK731mxo1TGwIOSxjJBo-13" value="" style="html=1;points=[];perimeter=orthogonalPerimeter;rounded=0;shadow=0;comic=0;labelBackgroundColor=none;strokeWidth=1;fontFamily=Verdana;fontSize=12;align=center;" parent="7baba1c4bc27f4b0-4" vertex="1">
          <mxGeometry x="50" y="248" width="10" height="50" as="geometry"/>
        </mxCell>
        <mxCell id="WK731mxo1TGwIOSxjJBo-24" value="" style="html=1;points=[];perimeter=orthogonalPerimeter;rounded=0;shadow=0;comic=0;labelBackgroundColor=none;strokeWidth=1;fontFamily=Verdana;fontSize=12;align=center;" parent="7baba1c4bc27f4b0-4" vertex="1">
          <mxGeometry x="50" y="400" width="10" height="40" as="geometry"/>
        </mxCell>
        <mxCell id="KQYRhY2pwS2a_90_j4RH-8" value="" style="html=1;points=[];perimeter=orthogonalPerimeter;rounded=0;shadow=0;comic=0;labelBackgroundColor=none;strokeWidth=1;fontFamily=Verdana;fontSize=12;align=center;" vertex="1" parent="7baba1c4bc27f4b0-4">
          <mxGeometry x="50" y="120" width="10" height="40" as="geometry"/>
        </mxCell>
        <mxCell id="WK731mxo1TGwIOSxjJBo-5" value="返回展期数据" style="html=1;verticalAlign=bottom;endArrow=open;dashed=1;endSize=8;labelBackgroundColor=none;fontFamily=Verdana;fontSize=12;edgeStyle=elbowEdgeStyle;elbow=vertical;" parent="1" edge="1">
          <mxGeometry relative="1" as="geometry">
            <mxPoint x="455" y="240" as="targetPoint"/>
            <Array as="points"/>
            <mxPoint x="720" y="240" as="sourcePoint"/>
          </mxGeometry>
        </mxCell>
        <mxCell id="WK731mxo1TGwIOSxjJBo-7" value="确认展期，调起收银台支付" style="html=1;verticalAlign=bottom;endArrow=block;labelBackgroundColor=none;fontFamily=Verdana;fontSize=12;edgeStyle=elbowEdgeStyle;elbow=vertical;" parent="1" target="WK731mxo1TGwIOSxjJBo-8" edge="1">
          <mxGeometry relative="1" as="geometry">
            <mxPoint x="150" y="320" as="sourcePoint"/>
            <mxPoint x="590" y="320" as="targetPoint"/>
          </mxGeometry>
        </mxCell>
        <mxCell id="WK731mxo1TGwIOSxjJBo-8" value="payui" style="shape=umlLifeline;perimeter=lifelinePerimeter;whiteSpace=wrap;html=1;container=1;collapsible=0;recursiveResize=0;outlineConnect=0;rounded=1;shadow=0;comic=0;labelBackgroundColor=none;strokeWidth=1;fontFamily=Verdana;fontSize=12;align=center;fillColor=#dae8fc;strokeColor=#6c8ebf;" parent="1" vertex="1">
          <mxGeometry x="545" y="80" width="100" height="580" as="geometry"/>
        </mxCell>
        <mxCell id="7baba1c4bc27f4b0-22" value="" style="html=1;points=[];perimeter=orthogonalPerimeter;rounded=0;shadow=0;comic=0;labelBackgroundColor=none;strokeWidth=1;fontFamily=Verdana;fontSize=12;align=center;" parent="WK731mxo1TGwIOSxjJBo-8" vertex="1">
          <mxGeometry x="50" y="240" width="10" height="70" as="geometry"/>
        </mxCell>
        <mxCell id="WK731mxo1TGwIOSxjJBo-10" value="显示确认结果" style="html=1;verticalAlign=bottom;endArrow=open;dashed=1;endSize=8;labelBackgroundColor=none;fontFamily=Verdana;fontSize=12;edgeStyle=elbowEdgeStyle;elbow=vertical;" parent="1" edge="1">
          <mxGeometry relative="1" as="geometry">
            <mxPoint x="149.5" y="387" as="targetPoint"/>
            <Array as="points"/>
            <mxPoint x="595" y="387.5" as="sourcePoint"/>
          </mxGeometry>
        </mxCell>
        <mxCell id="WK731mxo1TGwIOSxjJBo-11" value="同步请求展期" style="html=1;verticalAlign=bottom;endArrow=block;labelBackgroundColor=none;fontFamily=Verdana;fontSize=12;edgeStyle=elbowEdgeStyle;elbow=vertical;" parent="1" edge="1">
          <mxGeometry x="0.1538" relative="1" as="geometry">
            <mxPoint x="603.5" y="330" as="sourcePoint"/>
            <Array as="points"/>
            <mxPoint x="730" y="330" as="targetPoint"/>
            <mxPoint as="offset"/>
          </mxGeometry>
        </mxCell>
        <mxCell id="WK731mxo1TGwIOSxjJBo-15" value="update iou_ext_relation&lt;br&gt;状态为3，已展期" style="rounded=0;whiteSpace=wrap;html=1;gradientColor=#ffd966;fillColor=#fff2cc;strokeColor=#d6b656;" parent="1" vertex="1">
          <mxGeometry x="709" y="338" width="141" height="30" as="geometry"/>
        </mxCell>
        <mxCell id="WK731mxo1TGwIOSxjJBo-18" value="" style="html=1;points=[];perimeter=orthogonalPerimeter;rounded=0;shadow=0;comic=0;labelBackgroundColor=none;strokeWidth=1;fontFamily=Verdana;fontSize=12;align=center;" parent="1" vertex="1">
          <mxGeometry x="292.5" y="460" width="10" height="70" as="geometry"/>
        </mxCell>
        <mxCell id="WK731mxo1TGwIOSxjJBo-19" value="返回结果" style="html=1;verticalAlign=bottom;endArrow=open;dashed=1;endSize=8;labelBackgroundColor=none;fontFamily=Verdana;fontSize=12;edgeStyle=elbowEdgeStyle;elbow=vertical;" parent="1" edge="1">
          <mxGeometry relative="1" as="geometry">
            <mxPoint x="150" y="520" as="targetPoint"/>
            <Array as="points">
              <mxPoint x="225" y="520"/>
              <mxPoint x="255" y="520"/>
            </Array>
            <mxPoint x="290" y="520.5" as="sourcePoint"/>
          </mxGeometry>
        </mxCell>
        <mxCell id="WK731mxo1TGwIOSxjJBo-20" value="response" style="html=1;verticalAlign=bottom;endArrow=open;dashed=1;endSize=8;labelBackgroundColor=none;fontFamily=Verdana;fontSize=12;edgeStyle=elbowEdgeStyle;elbow=vertical;" parent="1" edge="1">
          <mxGeometry x="-0.2811" relative="1" as="geometry">
            <mxPoint x="302.5" y="520" as="targetPoint"/>
            <Array as="points">
              <mxPoint x="377.5" y="520"/>
              <mxPoint x="407.5" y="520"/>
            </Array>
            <mxPoint x="442.5" y="520.5" as="sourcePoint"/>
            <mxPoint x="1" as="offset"/>
          </mxGeometry>
        </mxCell>
        <mxCell id="WK731mxo1TGwIOSxjJBo-22" value="拒绝展期" style="html=1;verticalAlign=bottom;endArrow=block;labelBackgroundColor=none;fontFamily=Verdana;fontSize=12;edgeStyle=elbowEdgeStyle;elbow=vertical;" parent="1" target="7baba1c4bc27f4b0-4" edge="1">
          <mxGeometry x="0.0364" relative="1" as="geometry">
            <mxPoint x="457.5" y="480" as="sourcePoint"/>
            <mxPoint x="597" y="480.5" as="targetPoint"/>
            <mxPoint as="offset"/>
          </mxGeometry>
        </mxCell>
        <mxCell id="WK731mxo1TGwIOSxjJBo-23" value="data" style="html=1;verticalAlign=bottom;endArrow=open;dashed=1;endSize=8;labelBackgroundColor=none;fontFamily=Verdana;fontSize=12;edgeStyle=elbowEdgeStyle;elbow=vertical;" parent="1" edge="1">
          <mxGeometry x="0.0494" relative="1" as="geometry">
            <mxPoint x="460" y="519" as="targetPoint"/>
            <Array as="points">
              <mxPoint x="868" y="519"/>
              <mxPoint x="698" y="519"/>
            </Array>
            <mxPoint x="733" y="519.5" as="sourcePoint"/>
            <mxPoint x="1" as="offset"/>
          </mxGeometry>
        </mxCell>
        <mxCell id="KQYRhY2pwS2a_90_j4RH-2" value="update iou_ext_relation&lt;br&gt;状态为1，已拒绝" style="rounded=0;whiteSpace=wrap;html=1;gradientColor=#ffd966;fillColor=#fff2cc;strokeColor=#d6b656;" vertex="1" parent="1">
          <mxGeometry x="698" y="486" width="141" height="30" as="geometry"/>
        </mxCell>
        <mxCell id="KQYRhY2pwS2a_90_j4RH-3" value="返回处理结果" style="html=1;verticalAlign=bottom;endArrow=open;dashed=1;endSize=8;labelBackgroundColor=none;fontFamily=Verdana;fontSize=12;edgeStyle=elbowEdgeStyle;elbow=vertical;" edge="1" parent="1">
          <mxGeometry x="0.2126" relative="1" as="geometry">
            <mxPoint x="605" y="377" as="targetPoint"/>
            <Array as="points">
              <mxPoint x="707" y="377"/>
            </Array>
            <mxPoint x="731.9999999999998" y="377" as="sourcePoint"/>
            <mxPoint x="-1" as="offset"/>
          </mxGeometry>
        </mxCell>
        <mxCell id="KQYRhY2pwS2a_90_j4RH-4" value="拒绝展期：&lt;br&gt;extendRefuse" style="html=1;verticalAlign=bottom;endArrow=block;entryX=-0.068;entryY=0.139;entryDx=0;entryDy=0;entryPerimeter=0;" edge="1" parent="1">
          <mxGeometry width="80" relative="1" as="geometry">
            <mxPoint x="148" y="469" as="sourcePoint"/>
            <mxPoint x="291.81999999999994" y="468.7299999999999" as="targetPoint"/>
            <mxPoint as="offset"/>
          </mxGeometry>
        </mxCell>
        <mxCell id="KQYRhY2pwS2a_90_j4RH-5" value="拒绝展期：&lt;br&gt;extendRefuse" style="html=1;verticalAlign=bottom;endArrow=block;entryX=-0.068;entryY=0.139;entryDx=0;entryDy=0;entryPerimeter=0;" edge="1" parent="1">
          <mxGeometry x="0.1056" width="80" relative="1" as="geometry">
            <mxPoint x="300.5" y="474.5" as="sourcePoint"/>
            <mxPoint x="444.31999999999994" y="474.2299999999999" as="targetPoint"/>
            <mxPoint as="offset"/>
          </mxGeometry>
        </mxCell>
        <mxCell id="KQYRhY2pwS2a_90_j4RH-7" value="获取展期数据" style="html=1;verticalAlign=bottom;endArrow=block;labelBackgroundColor=none;fontFamily=Verdana;fontSize=12;edgeStyle=elbowEdgeStyle;elbow=vertical;" edge="1" parent="1">
          <mxGeometry relative="1" as="geometry">
            <mxPoint x="456" y="200.5" as="sourcePoint"/>
            <mxPoint x="728.5" y="200.3529411764706" as="targetPoint"/>
          </mxGeometry>
        </mxCell>
        <mxCell id="KQYRhY2pwS2a_90_j4RH-9" value="计算服务费" style="rounded=0;whiteSpace=wrap;html=1;gradientColor=#ffd966;fillColor=#fff2cc;strokeColor=#d6b656;" vertex="1" parent="1">
          <mxGeometry x="706" y="205" width="91" height="30" as="geometry"/>
        </mxCell>
      </root>
    </mxGraphModel>
  </diagram>
</mxfile>
